<?xml version="1.0" encoding="UTF-8"?><svg id="uuid-8ddc42e8-73cd-4ea0-a887-c17c7f2c8ad1" xmlns="http://www.w3.org/2000/svg" viewBox="0 0 345.89 345.89">
<title>Facebook icon 2013-2019 logo - Brandlogos.net</title><path d="M19.09,0h307.71c10.54,0,19.09,8.55,19.09,19.09v307.71c0,10.54-8.55,19.09-19.09,19.09H19.09c-10.54,0-19.09-8.55-19.09-19.09V19.09C0,8.55,8.55,0,19.09,0Z" style="fill:#3d5a98;"/><path d="M238.66,345.89v-133.95h44.96l6.73-52.2h-51.69v-33.33c0-15.11,4.2-25.41,25.87-25.41h27.64v-46.7c-4.78-.63-21.19-2.06-40.28-2.06-39.86,0-67.14,24.33-67.14,69v38.5h-45.08v52.2h45.08v133.95h53.91Z" style="fill:#fff;"/></svg>